# xmcd
#
# Track frame offsets:
#	182
#	24127
#	41257
#	52712
#	57727
#	71292
#	87305
#	106847
#	123432
#	140435
#	157247
#	179240
#	203000
#	229825
#
# Disc length: 3365 seconds
#
# Revision: 2
# Processed by: cddbd v1.5.2PL0 Copyright (c) Steve Scherf et al.
# Submitted via: audiograbber 1.83.01
#
DISCID=bb0d230e
DTITLE=Randy Rothwell - Be Magnified
DYEAR=1993
DGENRE=Worship and Praise
TTITLE0=Santuary
TTITLE1=Let the Heavens Rejoice
TTITLE2=We Praise You Jesus
TTITLE3=Let the Heavens Rejoice (reprise)
TTITLE4=I Belong to a Mighty God
TTITLE5=Lord, We Pray
TTITLE6=The Apostle's Creed
TTITLE7=He Reigns
TTITLE8=How Great is Your Goodness
TTITLE9=A Place at Your Altar
TTITLE10=Lord I Thirst For You
TTITLE11=More Love, More Power
TTITLE12=Be Magnified
TTITLE13=Stand Up, Stand Up For Jesus
EXTD=
EXTT0=
EXTT1=
EXTT2=
EXTT3=
EXTT4=
EXTT5=
EXTT6=
EXTT7=
EXTT8=
EXTT9=
EXTT10=
EXTT11=
EXTT12=
EXTT13=
PLAYORDER=
